<svg width="29" height="29" viewBox="0 0 29 29" fill="none" xmlns="http://www.w3.org/2000/svg">
<path d="M17.9005 11.8642L11.9894 17.7752C11.2301 17.0159 10.7628 15.9762 10.7628 14.8197C10.7628 12.5067 12.6319 10.6376 14.945 10.6376C16.1015 10.6376 17.1412 11.1049 17.9005 11.8642Z" stroke="#A1A8B0" stroke-width="1.75229" stroke-linecap="round" stroke-linejoin="round"/>
<path d="M21.7439 7.54169C19.6995 5.99967 17.3631 5.15857 14.945 5.15857C10.8212 5.15857 6.97786 7.58842 4.30269 11.7939C3.25132 13.4411 3.25132 16.2097 4.30269 17.8569C5.22557 19.3054 6.30031 20.5554 7.4685 21.56" stroke="#A1A8B0" stroke-width="1.75229" stroke-linecap="round" stroke-linejoin="round"/>
<path d="M10.7628 23.6161C12.0946 24.1769 13.5081 24.4806 14.945 24.4806C19.0687 24.4806 22.9121 22.0508 25.5872 17.8452C26.6386 16.1981 26.6386 13.4295 25.5872 11.7823C25.2017 11.1748 24.7812 10.6024 24.3489 10.0651" stroke="#A1A8B0" stroke-width="1.75229" stroke-linecap="round" stroke-linejoin="round"/>
<path d="M19.0452 15.6372C18.7414 17.2844 17.398 18.6278 15.7509 18.9315" stroke="#A1A8B0" stroke-width="1.75229" stroke-linecap="round" stroke-linejoin="round"/>
<path d="M11.9895 17.7751L3.26306 26.5016" stroke="#A1A8B0" stroke-width="1.75229" stroke-linecap="round" stroke-linejoin="round"/>
<path d="M26.6271 3.13757L17.9006 11.864" stroke="#A1A8B0" stroke-width="1.75229" stroke-linecap="round" stroke-linejoin="round"/>
</svg>
